<svg width="1024" height="1000" viewBox="0 0 1024 1000" fill="none" xmlns="http://www.w3.org/2000/svg"><g clip-path="url(#clip0)"><g clip-path="url(#clip1)"><path d="M896.8 421.5V244.2H785v-9.9h3.4v-92l-20.9 3.5h-6.4l-13.1-.4-49.4-20.9-7.9-11.3-20.6 7.3s-10.3 10.5-11.5 10.1c-1.1-.4-5.9-2.3-5.9-2.3l-10.4-7.8H608l.1-27.8 13-20.6v-46H500v39.8L518.3 95v23.5l-25.2.1-6.6 18.3.1 15.6-22.5 11.7-25.6 17.6-.9 24.3H386l-15.1 8.9h-7.4l-13.4-10.4H294l-7.1-6.4-14.5 7.6-29-38.2-20.7 12.2-.6 32.7-86.4.3-15.7 30v69.4h7.9l36.8 28.9v34.4l-36.8 29.9H98.7v216.1h83.6v-8.3h56.3v22.7H272v-15.4h70.5v16.4h37.2v82.6h67V793h133.2v8.3H449.6v37.2H549v118.8h95.6V835.2H683v-33.9h-62.8V793l253.5-1.7v-26.7h2.7v-99.5H872v-16h24.1V431.5h-55.3v-10h56zM649 234.5h105.1V245H658v61.4h-9v-71.9zm109.2 331.4v50.5h-68.4v-50.5h68.4zM413.3 281.1l46.2.3-46.2 35.3v-35.6zm24.8 117.2v25.2l-106.9.4v-25.5h106.9v-.1zM218.4 281.1h169.9l.3 45.3 10.8.1-.1 5.7H241.7l.3 24.2h-23.6v-75.3zm325.1 401.2h-66.7v-94.4H446v-50l-208-.5v-72.5h136.3v25h99.5l1.1 85.2h29.7v31.1h38.9v76.1zm157.9-24h-51v-101h-84.9v-27.7h-23.6v-78.8h23v2.8h85v-95h67.9V408h22.8v47.8h-83.9l.6 193h44.3v9.5h-.2zm127.3 4.7h-81.3v-14.4l81.3-1.1V663z" fill="#28204A"/><path d="M251.021 463.985v-12.9h-13v12.9h13zM344.314 398.256v-12.9h-13v12.9h13zM435.454 368.388v-12.9h-13v12.9h13zM116.629 621.141v-14.4h-18v14.4h18zM105.301 606.217v-6.6h-6.7v6.6h6.7zM339.166 554.296v-14.4h-18v14.4h18zM301.827 603.016v-14.4h-15.6v14.4h15.6z" stroke="#60558F" stroke-width="2" stroke-miterlimit="10"/><path d="M307.317 594.085v-5.5h-5.5v5.5h5.5zM605.236 398.277v-68.8h-24.8v68.8h24.8zM717.796 475.342v-18h-12.4v18h12.4zM678.27 480.683v-6.8h-5.1v6.8h5.1zM684.239 480.713v-6.8h-5.1v6.8h5.1zM896.095 648.804v-13.7h-11.8v13.7h11.8zM896.022 634.824v-6.8h-5.9v6.8h5.9zM828.318 565.531v-13.6h-12.4v13.6h12.4zM649.467 641.707v-13.3h-12.4v13.3h12.4zM637.065 634.971v-6.6h-9.2v6.6h9.2zM694.497 665.269v-7.6h-11.8v7.6h11.8zM649.418 649.076v-6.6h-6.2v6.6h6.2zM500.097 688.889v-6.6h-6.2v6.6h6.2zM534.442 777.98v-13.3h-19.6v13.3h19.6zM561.852 792.657v-27.9h-27.1v27.9h27.1zM684.437 792.56v-18.6h-24.7v18.6h24.7z" stroke="#60558F" stroke-width="2" stroke-miterlimit="10"/><path d="M659.842 792.555v-18.6h-15.3v18.6h15.3zM534.411 792.249v-13.3h-19.6v13.3h19.6zM578.019 778.004v-13.3h-15.2v13.3h15.2zM659.681 773.346v-13.3h-15.2v13.3h15.2zM680.062 773.319v-9.6h-20.2v9.6h20.2z" stroke="#60558F" stroke-width="2" stroke-miterlimit="10"/><path d="M684.397 773.283v-9.6h-5v9.6h5zM644.48 792.646v-24.9h-24.1v24.9h24.1zM578.087 792.273v-13.3h-15.2v13.3h15.2zM566.918 676.338v-69.7h-22.4v69.7h22.4z" stroke="#60558F" stroke-width="2" stroke-miterlimit="10"/><path d="M135.7 212.7L120 242.8v69.4h7.9l36.8 28.9v34.4l-36.8 29.9H98.7v216.1h83.6v-8.3h56.3v22.7H272v-15.4h70.5v16.4h37.2v82.6h67V793h133.2v8.3H449.6v37.2H549v118.8h95.6V835.2H683v-33.9h-62.8V793l253.5-1.7v-26.7h2.7v-99.5H872v-16h24.1V431.5h-55.3v-10h56.1V244.2H785v-9.9h3.4v-92l-20.9 3.5h-6.4l-13.1-.4-49.4-20.9-7.9-11.3-20.6 7.3s-10.3 10.5-11.5 10.1c-1.1-.4-5.9-2.3-5.9-2.3l-10.4-7.8H608l.1-27.8 13-20.6v-46H500v39.8L518.3 95v23.5l-25.2.1-6.6 18.3.1 15.6-22.5 11.7-25.6 17.6-.9 24.3H386l-15.1 8.9h-7.4l-13.4-10.4H294l-7.1-6.4-14.5 7.6-29-38.2-20.7 12.2-.6 32.7-86.4.2zM413.7 216.7V206" stroke="#60558F" stroke-width="2" stroke-miterlimit="10"/><path d="M241.9 356.4l-.2-24.2h157.6l.1-5.7-10.8-.1v-45.3H218.4v75.3h32.8v40.2h-46.6v29.7h84.2v-29.7h-19.9v-45.5h164.4v4.4H268.9M473.8 489.9h-99.5v-25H238v71.5l208.1.5v51h30.8v94.4h66.6v-76.1h-38.8v-31.1h-29.8l-1.1-85.2zM656.6 455.7h83.9v-47.8h-22.8v-49.4h-67.8v95h-85v-2.8h-23v78.9h23.6v27.7h84.9v101h51v-9.6h-44.3l-.5-193z" stroke="#60558F" stroke-width="2" stroke-miterlimit="10"/><path d="M758.1 565.9h-68.4v50.5h68.4v-50.5zM747.4 648.5V663h81.3v-15.6l-81.3 1.1z" stroke="#60558F" stroke-width="2" stroke-miterlimit="10"/><path d="M896.1 591.2h-123v25.2h-15.7 93.4M894.8 541.9h-67.5v24h-78.4M872.9 541.9v-84.8h-32.5v-35.6M649 234.5v71.9h9V245h96.2v-10.5H649zM788.4 208.9H676" stroke="#60558F" stroke-width="2" stroke-miterlimit="10"/><path d="M896.8 263.7H657.5" stroke="#60558F" stroke-miterlimit="10"/><path d="M407.6 619h39v79.7H441V627h-33.4v-8zM394.7 621.2h-15.1v29.7M379.6 664.3h14.2v56.1M486.7 256.9h-47.5M388.6 206v75.1M412.7 273.2h-24.6M450.4 232.5h-11.2v-50.8M608.1 121.7v58.1M518.3 120.1v56.6M687.5 312.7h28.7v42.8M703 355.5v-43.7M896.8 348.2h-55.7v34.5h-89.7v-36.3M832.8 282.8H742v37.8h90.8v-37.8z" stroke="#60558F" stroke-width="2" stroke-miterlimit="10"/><path d="M763.3 382.7v-23.2h66.6v23.2M896.8 332.1H871v15.1M831.2 487.5h-81.3v25.2h81.3v-25.2zM625.6 558.7v68.8h24.8M332.2 204.5v42h-57.8v-40.8M222.1 212.4v31.2M158.5 212.7v30.9M331.2 439.4v-41.1h106.9v25.2l-106.9.4" stroke="#60558F" stroke-width="2" stroke-miterlimit="10"/><path d="M320.3 281.1v51.1M284.8 306.7h35.5M320.3 332.2l-34.1-11.3h32.3l-33.7 11.3v-51.1" stroke="#60558F" stroke-miterlimit="10" stroke-dasharray="3 3"/><path d="M290.8 281.1l28.4 9.8h-34.4l25.8-9.8M284.8 306.7l35.5-15.8M320.3 306.7l-35.5-15.8M284.8 322.4l35.5-15.7M320.3 322.4l-35.5-15.7" stroke="#60558F" stroke-miterlimit="10" stroke-dasharray="3 3"/><path d="M737.5 408.2h56.8v47.3h-52.8" stroke="#60558F" stroke-width="2" stroke-miterlimit="10"/><path d="M741.5 415.5h41.4v7.4h11.4M741.5 446.8h41.4v-7.4h11.4M656.6 480.9h15.8v-25.2M684.2 473.9v-18.2M876.9 412.896h8.1v-6.8h-8.1v6.8zM892.747 405.19h4.1v-6.8h-4.1v6.8z" stroke="#60558F" stroke-width="2" stroke-miterlimit="10"/><path d="M884.984 421.498h11.8v-15.4h-11.8v15.4zM853.713 294.154h15v-15h-15v15zM798.363 333.294h20.5v-12.4h-20.5v12.4zM775.249 208.652h13.1v-14h-13.1v14zM784.154 194.638h4.2v-7h-4.2v7z" stroke="#60558F" stroke-width="2" stroke-miterlimit="10"/><path d="M876.9 420.847h8.1v-6.8h-8.1v6.8zM338 238.7h-5.6M274.5 238.7h-5.6M413.2 211.4h-25.1M338 211.4h-5.6M460.3 343.4h-6.9v6.8h6.9v-6.8zM343.6 332.2h-6.9v6.8h6.9v-6.8zM450.4 253.5h-11.2v3.4h11.2v-3.4zM592.9 314.5h-14.8v14.6h14.8v-14.6zM650.2 439.5h-14.8v14.6h14.8v-14.6zM635.4 439.5h-14.8v14.6h14.8v-14.6zM562.7 287H537v41.4h25.7V287zM578.1 314.5h-15.4M524.2 329.2h56.3M524.2 354.5h56.3M537 314.5h-12.8M537.6 307.7h-12.8M495.1 449.4h-18.2M619.7 698.7V802M580 699.6V802M136.4 511.5l18.3-18.1 49.9 51.8-19.2 16.3-49-50z" stroke="#60558F" stroke-width="2" stroke-miterlimit="10"/><path d="M377.9 537.9v50M446.1 565.5H240.7V588h216.5" stroke="#60558F" stroke-miterlimit="10"/><path d="M534.5 788.3h28.4M884.2 641.9l-10.2 7.3M623.5 121.9h-13.3v12.2h13.3v-12.2zM518.4 120.2h-17.2v10.3h17.2v-10.3z" stroke="#60558F" stroke-width="2" stroke-miterlimit="10"/><path d="M489.6 130.6h11.6v-10.4l-8.6-.1-3 10.5zM636.7 128h-13.3v6.1h13.3V128zM631.7 121.8v6.2M636.7 121.8v6.2" stroke="#60558F" stroke-width="2" stroke-miterlimit="10"/><path d="M223.5 191c3.4.8 6.6-2.2 8.1-5.1.8-1.5 1.2-3.2.6-4.9-.3-.8-.7-1.4-1.2-2-.5-.6-1-1.1-1.2-1.8-.4-1.2-2.3-.7-1.9.5.4 1.3 1.4 2.1 2.1 3.2.7 1.1.6 2.4.1 3.6-.5 1.2-1.4 2.4-2.4 3.3-1 .9-2.3 1.6-3.6 1.3-1.3-.3-1.9 1.6-.6 1.9zM235.3 173.1c.4 1.6 1.3 3 2.6 3.9.7.5 1.5.8 2.3 1.1.9.3 1.7.6 2.6.7 1.7.2 3.4 0 4.6-1.3 1-1.1 1.6-2.7 1-4.2-.2-.5-.7-.8-1.2-.7-.5.1-.9.7-.7 1.2.4.9 0 1.8-.7 2.4-.9.8-2.2.7-3.3.5-1.2-.3-2.6-.7-3.6-1.4-.9-.7-1.5-1.7-1.7-2.8-.2-1.1-2.1-.6-1.9.6z" fill="#60558F"/><path d="M234.6 173.8c-.2.8-.4 1.6-.7 2.3-.1.2-.1.4-.2.6 0 0-.1.3 0 .1 0 .1-.1.2-.1.3-.2.3-.3.6-.5 1 0 .1-.1.1-.1.2l-.1.1c-.1.1-.2.3-.4.4l-.2.2c.2-.1 0 0-.1 0s-.1.1-.2.1c-.1.1-.2.1 0 0-.1 0-.3.1-.4.1h0-.1.1l-.2-.1h.1s-.1 0-.1-.1l-.1-.1c.1 0 .1 0 0 0-.1-.1-.2-.1-.3-.2-.4-.3-1-.1-1.3.3-.3.4-.2.9.1 1.3.6.7 1.7.9 2.6.7.9-.2 1.7-.9 2.2-1.6 1.1-1.5 1.6-3.4 2.1-5.1.1-.5-.2-1.1-.7-1.2-.7-.1-1.2.1-1.4.7z" fill="#60558F"/><path d="M236.3 176.6c-4.4 7.2-8.3 14.6-11.7 22.3-1 2.2-1.9 4.4-2.8 6.6-.2.5.2 1.1.7 1.2.6.2 1-.2 1.2-.7 3.1-7.7 6.7-15.1 10.7-22.4 1.1-2 2.3-4.1 3.5-6.1.7-.9-1-1.9-1.6-.9zM121.7 240.9c1.5 1.3 2.2 3.2 2.1 5.1-.1.8-.4 1.9-.9 2.5-.3.3-.8.2-1.2.2-.7 0-1.5 0-1.9.6-.6.7 0 1.9.9 1.6.3-.1.5-.2.9-.2h.9c.8-.1 1.4-.4 1.9-.9.9-1 1.3-2.3 1.4-3.6.3-2.5-.7-5.1-2.6-6.6-.4-.3-1-.4-1.4 0-.4.2-.5.9-.1 1.3zM661.7 129.8c1.2 1.9 2.7 3.7 4.6 4.9 1.9 1.2 4.4 1.7 6.6 1 2-.6 3.6-2.4 4-4.4.4-2.3-.9-4.1-2.2-5.8-.6-.8-1.2-1.6-1.4-2.6-.2-.7-.2-1.7.5-2.1 1.1-.7.1-2.4-1-1.7-1.5 1-1.8 2.9-1.3 4.6.5 1.9 2 3.1 3 4.7.5.7.8 1.6.6 2.4-.1.9-.7 1.6-1.3 2.2-1.5 1.3-3.6 1.2-5.3.5-2.2-.9-3.7-2.8-5-4.8-.8-1-2.5 0-1.8 1.1z" fill="#60558F"/><path d="M673.8 128.1c1.4.8 3.1 1.6 4.8 1.4 1.6-.2 2.9-1.2 3.5-2.7.5-1.3.5-2.8.3-4.1-.1-.9-.2-1.8-.4-2.7-.1-.9-.2-2-.4-2.8-.3-1-1.8-.8-1.9.3 0 .8.2 1.7.3 2.5l.3 2.4c.1 1 .2 2.2 0 3.2s-.8 1.8-1.9 2c-1.3.1-2.6-.6-3.7-1.2s-2.1 1.1-.9 1.7z" fill="#60558F"/><path d="M679.1 127.3c1.4 3.3 4.4 5.6 7.9 6.2 3.7.7 7.4-.6 10.3-2.9 1.7-1.3 3.1-3 4.1-4.9.6-1.1-1.1-2.1-1.7-1-1.6 2.8-4 5.2-7 6.3-2.8 1.1-5.9.8-8.5-.7-1.4-.8-2.5-2.1-3.1-3.5-.2-.5-.7-.8-1.2-.7-.6.1-1 .7-.8 1.2z" fill="#60558F"/><path d="M701.1 127.9c4.8 2 9.2 4.9 13 8.4 1.9 1.7 3.4 3.7 5.3 5.4 1.7 1.6 4.3 3.5 6.7 2.6 2.3-.9 3.1-3.5 3.5-5.7.1-.5-.1-1.1-.7-1.2-.5-.1-1.1.2-1.2.7-.2 1.5-.6 3.8-2.2 4.4-1.1.4-2.2-.2-3.1-.8-.9-.6-1.8-1.4-2.5-2.3-1.6-1.8-3.2-3.5-5.1-5.1-1.8-1.6-3.8-3.1-5.9-4.4-2.3-1.5-4.8-2.7-7.3-3.8-.5-.2-1.1.2-1.2.7-.1.5.2.9.7 1.1z" fill="#60558F"/><path d="M726.2 143.1c0 3.7.9 8.3 4.7 9.9 1.5.7 3.3.9 4.9.2.8-.3 1.5-.8 2-1.5.7-.8.9-1.9 1.4-2.8 1-2.1 3-3.5 4.8-4.8.4-.3.6-.9.4-1.4-.2-.4-.9-.7-1.4-.4-1.5 1.1-3.1 2.2-4.2 3.7-.6.7-1.1 1.5-1.5 2.4-.3.8-.5 1.6-1.1 2.2-.9.9-2.3 1.1-3.5.8-1.5-.4-2.6-1.4-3.3-2.7-.9-1.7-1.1-3.8-1.1-5.7-.2-1.1-2.1-1.1-2.1.1zM745.9 147.1c2.3.9 4.1 2.8 5.6 4.7 1.6 1.9 3.1 4 5.1 5.6 2.2 1.7 4.8 2.8 7.6 2.5 3-.3 5.8-1.9 7.4-4.6 1.7-2.9 1.8-6.6.3-9.7-.6-1.1-2.3-.1-1.7 1 1.2 2.3 1.1 5.2-.2 7.5s-3.8 3.7-6.3 3.8c-5.1.3-8.1-4.4-11-7.9-1.7-2.1-3.7-3.9-6.2-4.9-.5-.2-1.1.2-1.2.7-.2.6.1 1.1.6 1.3z" fill="#60558F"/><path d="M770.4 153.9c-.4 2.2.5 4.1 1.8 5.7.6.8 1.3 1.5 2.1 2.2.8.7 1.6 1.5 2.6 2 4.2 2.4 8.4-.8 11.4-3.6.9-.9-.5-2.3-1.4-1.4-2.3 2.1-5.7 5.1-9 3.3-1.5-.8-2.8-2.2-3.9-3.5-1-1.2-2-2.7-1.7-4.3.1-.5-.1-1.1-.7-1.2-.5 0-1.1.3-1.2.8zM620.8 757.3h4.7c.4 0 .9-.1 1.2.1.5.2.6 1.1.8 1.6.3.8.7 1.4 1.2 2.1.9 1.1 2.4 2 3.8 2.2.2 0 .4.1.6.1.4 0 .1.1.1-.1-.1.4 0 .8 0 1.2v3.2c0 1.3 2 1.3 2 0v-3.4c0-1 .1-2-.9-2.6-.7-.4-1.6-.2-2.4-.5-.7-.3-1.4-.8-1.8-1.4-1-1.3-.8-3.4-2.6-4.1-1-.4-2.2-.2-3.2-.2-1.1 0-2.3 0-3.4-.1-1.4-.1-1.4 1.8-.1 1.9z" fill="#60558F"/><path d="M414.3 229.1v20M413.3 261.8v55.4l43.5-33.9h61.6v67.2h-24.2l1 118.6h-15.1l-1-118h-28l-.2 4.4h25.2l.4 11.6 1.5 185.5h22l-1-197.1h25.2v-74.4H413.3" stroke="#60558F" stroke-width="2" stroke-miterlimit="10"/><path d="M872 531.4c-2.1-.5-4.4-.1-6.2 1.3-.9.7-1.7 1.5-2.1 2.5-.3.7-.4 1.5.1 2.1.4.4.9.6 1.3.9.5.4.9.8 1.1 1.4.2.5.2.8 0 1.3s.2 1.1.7 1.2c.6.2 1-.2 1.2-.7.6-1.4 0-2.9-1-4-.4-.5-1-.9-1.5-1.3-.1 0-.3-.3-.4-.2.4 0-.1.7.1.3.1-.2.3-.5.4-.7 1.2-1.8 3.6-2.7 5.7-2.1 1.3.2 1.9-1.7.6-2zM825.4 545.7c-.2.3-.4.5-.6.8 0 .1-.1.1-.1.2 0 0-.1.2-.1.1-.1.1-.2.3-.3.4-.4.5-.8 1-1.3 1.4-.5.4-.9.9-1.4 1.3-.2.2-.5.4-.8.6 0 0-.1.1 0 0-.1.1-.1.1-.2.1s-.1.1-.2.1l-.2.2c-.1.1-.1.1 0 0-.4.3-.7.9-.4 1.3.3.4.9.7 1.3.4 2.3-1.6 4.3-3.7 5.9-6 .3-.4.1-1.1-.4-1.3-.3-.2-.9-.1-1.2.4zM815.9 552.3c-1-1.3-3-1-4.1.1-.6.7-.9 1.7-.9 2.6 0 .5.1.9.2 1.4 0 .1 0 .4.1.4 0 0 .5-.2 0-.2-1.7 0-2.8 1.1-3.3 2.7-.3.8-.3 1.7-.4 2.5-.1 1.1-.1 2.2-.1 3.3 0 1.3 2 1.3 2 0 0-1.6 0-3.4.3-4.9.1-.5.3-1 .6-1.3.4-.4.9-.2 1.4-.3.8-.1 1.3-.7 1.4-1.5.1-.7-.2-1.4-.2-2.1 0-.5.1-1.1.6-1.4.4-.2.7-.2 1 .1.3.4 1.1.3 1.4 0 .4-.4.4-.9 0-1.4z" fill="#60558F"/><path opacity=".6" d="M717.4 249.438v4.738h1v9.476h-1v4.738h1v9.477h-1v4.738h1v9.476h-1v4.738h1v9.476h-1v4.738h1v9.477h-1v4.738h1v9.476h-1v4.738h1v3.738h3.984v1h4.983v-1h9.967v1h4.983v-1h9.967v1h4.983v-1h9.967v1h4.983v-1h9.967v1h4.983v-1h9.967v1h4.983v-1h9.967v1h4.983v-1h9.967v1h4.983v-1h9.967v1h4.983v-1h9.967v1h4.983v-1h9.967v1h4.983v-1h9.967v1h4.983v-1h3.983v-3.738h1v-4.738h-1v-9.476h1v-4.738h-1v-9.477h1v-4.738h-1v-9.476h1v-4.738h-1v-9.476h1v-4.738h-1v-9.477h1v-4.738h-1v-9.476h1v-4.738h-1V245.7h-3.983v-1h-4.983v1h-9.967v-1h-4.983v1h-9.967v-1h-4.983v1h-9.967v-1h-4.983v1h-9.967v-1h-4.983v1h-9.967v-1h-4.983v1h-9.967v-1h-4.983v1h-9.967v-1h-4.983v1h-9.967v-1h-4.983v1h-9.967v-1h-4.983v1h-9.967v-1h-4.983v1h-9.967v-1h-4.983v1H718.4v3.738h-1zM832.2 321.5h1v-5.2h-1v-4.2h1v-8.4h-1v-4.2h1v-8.4h-1v-4.2h1v-5.2h-6.1v1H822v-1h-10.2v1h-5.1v-1h-10.2v1h-5.1v-1h-10.2v1h-5.1v-1h-10.2v1h-5.1v-1h-10.2v1h-5.1v-1h-6.1v5.2h1v4.2h-1v8.4h1v4.2h-1v8.4h1v4.2h-1v5.2h6.1v-1h5.1v1h10.2v-1h5.1v1h10.2v-1h5.1v1h10.2v-1h5.1v1h10.2v-1h5.1v1H822v-1h5.1v1h5.1zM291.232 459.647v-5.195h-1v-10.39h1v-5.196h-1v-10.39h1v-5.195h-1V412.89h1v-5.195h-1v-10.39h1v-5.196h-1v-10.39h1v-5.195h-1v-10.391h1v-5.195h-1v-4.195h-3.877v-1h-4.878v1h-9.756v-1h-4.877v1h-9.756v-1h-4.878v1h-9.755v-1h-4.878v1h-9.756v-1h-4.877v1h-9.756v-1h-4.878v1h-3.878v4.195h-1v5.195h1v10.391h-1v5.195h1v10.39h-1v5.196h1v10.39h-1v5.195h1v10.391h-1v5.195h1v10.39h-1v5.196h1v10.39h-1v5.195h1v4.196h3.878v1h4.878v-1h9.756v1h4.877v-1h9.756v1h4.878v-1h9.755v1h4.878v-1h9.756v1h4.877v-1h9.756v1h4.878v-1h3.877v-4.196h1z" fill="#535895" stroke="#fff" stroke-width="2" stroke-dasharray="10 5"/><path d="M884.535 309.243h-10.799l-2.26 6.491h-5.036l10.532-27.879h4.346l10.55 27.879h-5.055l-2.278-6.491zm-9.44-3.906h8.08l-4.04-11.565-4.04 11.565zM262.772 457.072v-27.879h9.555c3.153 0 5.553.632 7.199 1.896 1.647 1.263 2.471 3.146 2.471 5.648 0 1.277-.345 2.426-1.034 3.447-.69 1.021-1.698 1.812-3.026 2.374 1.507.409 2.668 1.181 3.485 2.317.83 1.123 1.245 2.476 1.245 4.059 0 2.617-.843 4.628-2.528 6.032-1.672 1.404-4.072 2.106-7.199 2.106h-10.168zm4.845-12.58v8.712h5.38c1.519 0 2.706-.376 3.562-1.13.855-.753 1.282-1.799 1.282-3.14 0-2.897-1.48-4.378-4.442-4.442h-5.782zm0-3.561h4.748c1.507 0 2.681-.339 3.523-1.015.856-.69 1.283-1.66 1.283-2.911 0-1.378-.395-2.374-1.187-2.987-.778-.612-1.998-.919-3.657-.919h-4.71v7.832z" fill="#fff"/></g></g><defs><clipPath id="clip0"><path fill="#fff" d="M0 0h1024v1000H0z"/></clipPath><clipPath id="clip1"><path fill="#fff" transform="translate(98 26)" d="M0 0h799v931H0z"/></clipPath></defs></svg>