<svg width="28" height="29" viewBox="0 0 28 29" fill="none" xmlns="http://www.w3.org/2000/svg">
<path fill-rule="evenodd" clip-rule="evenodd" d="M23.5735 15.313C23.5735 17.097 23.0855 18.7671 22.2357 20.1969H23.051C23.8366 18.744 24.2827 17.0806 24.2827 15.313C24.2827 9.634 19.6789 5.03027 14 5.03027C8.32097 5.03027 3.71729 9.634 3.71729 15.313C3.71729 17.0806 4.16331 18.744 4.94895 20.1969H5.76421C4.91443 18.7671 4.42643 17.097 4.42643 15.313C4.42643 10.0256 8.71262 5.73943 14 5.73943C19.2873 5.73943 23.5735 10.0256 23.5735 15.313ZM22.1552 15.313C22.1552 17.1448 21.5513 18.8355 20.5316 20.1969H18.6403C19.9318 18.9695 20.7369 17.2353 20.7369 15.313C20.7369 12.5742 19.1026 10.2172 16.7561 9.16377L15.8747 7.37422C19.4751 8.22122 22.1552 11.4541 22.1552 15.313ZM5.84473 15.313C5.84473 17.1448 6.44871 18.8355 7.46832 20.1969H9.3596C8.06816 18.9695 7.26304 17.2353 7.26304 15.313C7.26304 12.5673 8.90547 10.2054 11.2614 9.15596L12.1482 7.36886C8.53628 8.20746 5.84473 11.4459 5.84473 15.313ZM14.0124 19.5678C14.6084 15.7186 15.2044 13.6077 17.2905 13.4586L14.0124 6.80308L10.7094 13.4586C12.8203 13.6077 13.4163 15.7186 14.0124 19.5678ZM5.42211 21.3636C5.33199 21.3636 5.26345 21.4445 5.27826 21.5334L5.52131 22.9917C5.53303 23.062 5.59387 23.1136 5.66516 23.1136H22.3347C22.406 23.1136 22.4669 23.062 22.4786 22.9917L22.7217 21.5334C22.7365 21.4445 22.6679 21.3636 22.5778 21.3636H5.42211Z" fill="#3763F6"/>
</svg>